<?xml version='1.0' encoding='utf-8'?>
<svg xmlns="http://www.w3.org/2000/svg" version="1.0" width="450.000000pt" height="450.000000pt" viewBox="0 0 450.000000 450.000000" preserveAspectRatio="xMidYMid meet">

<g transform="translate(0.000000,450.000000) scale(0.100000,-0.100000)" fill="#FFA500" stroke="none">
<path d="M2003 4013 c-33 -4 -42 -16 -23 -28 6 -3 8 -18 5 -33 -6 -27 -6 -27 10 -6 l16 22 24 -24 c19 -19 35 -24 77 -24 98 0 178 -37 178 -81 0 -10 11 -26 24 -36 l24 -18 -24 -47 c-13 -26 -24 -57 -24 -68 0 -63 54 -81 90 -31 11 17 30 33 41 36 24 8 21 30 -15 110 -45 99 -121 165 -244 209 -71 25 -90 27 -159 19z" />
<path d="M1950 3842 c0 -5 15 -16 34 -25 28 -13 35 -13 39 -3 3 8 0 19 -6 25 -13 13 -67 15 -67 3z" />
<path d="M2123 3792 c-9 -5 12 -19 59 -40 39 -18 73 -31 74 -29 2 2 -10 20 -27 40 -24 29 -38 37 -62 37 -18 0 -38 -4 -44 -8z" />
<path d="M2036 3760 c4 -26 1 -40 -10 -49 -14 -11 -16 -11 -16 4 0 25 -34 14 -38 -13 -2 -13 1 -29 7 -35 7 -9 1 -25 -20 -56 -35 -52 -35 -53 -8 -69 34 -22 69 -33 69 -22 0 6 -6 10 -14 10 -8 0 -24 9 -37 19 l-24 19 58 84 c31 46 57 88 57 94 0 6 -7 19 -15 30 -13 18 -14 16 -9 -16z" />
<path d="M2144 3676 c-10 -26 1 -51 21 -49 20 2 20 1 1 -13 -11 -8 -15 -14 -9 -14 14 0 43 28 43 41 0 6 -4 8 -9 4 -5 -3 -11 5 -13 17 -4 26 -26 36 -34 14z" />
<path d="M2377 3503 c-2 -5 -7 -21 -11 -38 l-7 -29 21 19 c12 11 26 28 31 37 8 14 6 18 -10 18 -11 0 -22 -3 -24 -7z" />
<path d="M1930 3491 c0 -30 110 -61 183 -53 54 6 25 17 -47 17 -62 0 -80 4 -105 23 -17 12 -31 18 -31 13z" />
<path d="M2284 3088 c17 -30 21 -75 7 -97 -7 -11 -25 -12 -82 -7 -90 9 -170 38 -216 80 -20 17 -34 24 -32 16 16 -48 175 -110 281 -110 l44 0 67 -252 c108 -409 109 -423 93 -1043 -5 -188 -4 -326 2 -350 6 -28 7 14 4 135 -3 96 1 287 8 425 19 362 10 444 -106 873 -30 112 -52 208 -49 213 4 5 13 9 22 9 25 0 93 22 93 30 0 4 -17 2 -37 -6 -64 -22 -73 -19 -73 25 0 25 -7 47 -21 62 l-21 24 16 -27z" />
<path d="M1705 2974 c52 -87 76 -170 99 -354 2 -19 3 3 1 50 -7 134 -61 296 -117 347 -11 9 -3 -9 17 -43z" />
<path d="M932 2913 c-16 -16 -39 -28 -57 -29 -30 -2 -65 -34 -65 -61 0 -8 -9 -35 -21 -60 -31 -68 -19 -82 33 -40 24 19 54 40 67 47 22 11 27 10 50 -16 15 -18 34 -29 50 -29 18 0 29 -8 39 -28 l13 -28 56 51 c75 69 113 67 113 -7 0 -13 3 -23 8 -21 4 2 24 10 45 18 27 10 37 20 37 36 0 32 -22 46 -54 34 -21 -8 -28 -7 -32 5 -8 19 -51 19 -84 0 -35 -20 -38 -19 -45 15 -4 16 -11 32 -16 35 -5 4 -9 17 -9 31 0 32 -42 74 -75 74 -15 0 -37 -12 -53 -27z" />
<path d="M2861 2826 c15 -40 40 -129 53 -197 25 -120 50 -391 45 -476 -2 -23 1 -46 5 -50 13 -12 -1 301 -19 421 -24 163 -84 376 -105 376 -4 0 5 -33 21 -74z" />
<path d="M2257 2763 c-13 -12 -7 -54 9 -60 8 -3 22 1 31 9 12 12 13 20 4 37 -12 21 -31 27 -44 14z" />
<path d="M2092 2748 c-28 -28 3 -83 33 -58 8 7 15 20 15 29 0 17 -18 41 -30 41 -3 0 -11 -5 -18 -12z" />
<path d="M2364 2386 c-10 -26 1 -51 23 -54 17 -3 24 3 29 22 3 14 3 30 -1 35 -9 16 -45 13 -51 -3z" />
<path d="M2201 2372 c-11 -21 3 -52 24 -52 21 0 35 32 24 53 -13 22 -36 22 -48 -1z" />
<path d="M1786 2273 c-8 -81 -38 -224 -72 -347 -30 -107 -24 -128 6 -25 45 149 97 439 80 439 -4 0 -10 -30 -14 -67z" />
<path d="M1198 2182 c-27 -57 -78 -86 -158 -90 -54 -3 -75 0 -109 18 -56 28 -63 20 -9 -10 87 -49 210 -24 276 56 l30 36 12 -23 c7 -13 52 -87 100 -164 100 -160 143 -242 160 -304 6 -24 14 -41 16 -38 8 8 -16 88 -43 142 -14 27 -75 128 -134 224 -60 96 -109 178 -109 183 0 19 -16 5 -32 -30z" />
<path d="M2371 1916 c-19 -23 -4 -58 22 -54 17 2 22 10 22 33 0 34 -24 45 -44 21z" />
<path d="M2212 1908 c-28 -28 3 -83 33 -58 8 7 15 20 15 29 0 17 -18 41 -30 41 -3 0 -11 -5 -18 -12z" />
<path d="M3327 1909 c-21 -5 -48 -14 -59 -20 -20 -11 -20 -12 13 -26 19 -8 44 -24 56 -35 13 -12 23 -17 23 -10 0 11 -44 45 -70 54 -22 8 33 28 76 28 19 0 34 5 34 10 0 12 -20 11 -73 -1z" />
<path d="M3063 1595 c41 -82 69 -188 70 -270 2 -81 17 -106 17 -27 0 102 -58 301 -97 333 -10 9 -7 -3 10 -36z" />
<path d="M3575 1200 c-4 -7 97 -240 104 -240 3 0 5 26 4 57 -1 32 -2 86 -2 120 l-1 61 -51 4 c-28 1 -52 1 -54 -2z" />
<path d="M680 1143 c0 -5 160 -17 383 -27 210 -10 385 -20 390 -23 4 -2 7 0 7 5 0 14 -71 21 -301 32 -112 5 -266 13 -341 16 -85 4 -138 3 -138 -3z" />
<path d="M3758 1073 c-27 -2 -48 -8 -48 -14 0 -10 132 -1 165 12 21 8 -26 9 -117 2z" />
<path d="M3140 1014 c-102 -12 -212 -23 -244 -23 -35 -1 -56 -5 -50 -10 14 -13 538 31 579 49 35 15 -89 9 -285 -16z" />
<path d="M596 1021 c-3 -4 104 -11 237 -14 217 -5 460 -22 649 -45 37 -5 65 -5 62 -1 -21 34 -929 92 -948 60z" />
<path d="M2390 1002 c0 -17 210 -49 232 -36 8 5 -24 13 -77 20 -49 6 -105 14 -122 18 -19 5 -33 4 -33 -2z" />
<path d="M775 860 c-17 -4 75 -8 205 -9 208 -1 342 -6 650 -26 57 -4 80 -2 69 4 -40 25 -841 52 -924 31z" />
<path d="M2116 792 c-3 -5 4 -10 17 -10 12 0 69 -5 126 -11 57 -6 131 -11 165 -10 94 1 39 15 -89 23 -60 3 -133 9 -161 12 -30 4 -54 2 -58 -4z" />
<path d="M503 691 c36 -12 345 -28 767 -41 355 -11 523 -22 673 -45 263 -41 724 -57 1242 -44 369 9 522 19 748 46 132 16 137 17 137 40 l0 23 -825 0 -825 0 0 -25 0 -25 722 0 c397 0 719 -2 717 -4 -9 -10 -514 -36 -799 -42 -412 -9 -806 8 -1105 47 -159 20 -311 32 -490 39 -143 6 -375 15 -515 20 -140 6 -304 13 -365 15 -75 3 -101 2 -82 -4z m1934 -53 c-3 -8 -6 -5 -6 6 -1 11 2 17 5 13 3 -3 4 -12 1 -19z" />
<path d="M2777 443 c-492 -2 -746 -7 -742 -13 4 -7 -88 -10 -264 -10 -169 0 -272 4 -276 10 -9 14 -1117 14 -1132 -1 -6 -6 -46 -9 -102 -7 l-91 3 0 -67 c0 -41 4 -68 11 -68 5 0 8 3 6 8 -3 4 926 6 2064 4 l2069 -2 2 62 2 63 3 -60 c2 -33 7 -63 11 -67 4 -4 5 23 2 60 l-5 67 -60 7 c-88 11 -649 15 -1498 11z" />
</g>
<text x="50" y="190" font-size="16" font-family="Verdana" fill="#FF4500" font-weight="bold" style="text-shadow: 1px 1px #000000;">Jarika Watamu</text></svg>